# xmcd
#
# Track frame offsets:
#	150
#	28828
#	40419
#	54225
#	67246
#	77812
#	95942
#	110601
#	122104
#	145257
#	157700
#	172705
#	183031
#	193104
#	211025
#
# Disc length: 3007
#
# Revision: 2
# Processed by: cddbd v1.5.1PL0 Copyright (c) Steve Scherf et al.
# Submitted via: NotifyCDPlayer(CDDB) 1.60beta6
# Normalized: r1:TDELIM( - )
#
DISCID=cc0bbd0f
DTITLE=Various Artist - This is Soul [CD2]
DYEAR=1900
DGENRE=
TTITLE0=Al Green - How can you mend a broken heart
TTITLE1=Syl Johnson - Back for a taste of your love
TTITLE2=O.V. Wright - Eight men, four women
TTITLE3=Paul Kelly - Nine out of ten times
TTITLE4=Etta James - Miss Pittiful
TTITLE5=Solomon Burke - Let me wrap my arms around you
TTITLE6=James Phelps - Love is a 5 letter word
TTITLE7=Irma Thomas - Good to me
TTITLE8=Bobby Womack - That's the way I feel about cha
TTITLE9=Bobby Marchan - I gotta sit down and cry
TTITLE10=The Dells - O-o I love you
TTITLE11=Chuck Jackson - I wake up crying
TTITLE12=Sam Cooke - I'll come running back to you
TTITLE13=Annette Snel - You oughta be here with me
TTITLE14=Al Green - God is standing by
EXTD=
EXTT0=
EXTT1=
EXTT2=
EXTT3=
EXTT4=
EXTT5=
EXTT6=
EXTT7=
EXTT8=
EXTT9=
EXTT10=
EXTT11=
EXTT12=
EXTT13=
EXTT14=
PLAYORDER=
